<svg width="800" height="800" viewBox="0 0 800 800" fill="none" xmlns="http://www.w3.org/2000/svg">
<path fill-rule="evenodd" clip-rule="evenodd" d="M0 14C0 6.26801 6.26801 0 14 0H218.754C232.931 0 239.399 20.5962 228.34 29.4653C200.369 51.896 161.067 87.4178 120.5 137C80.1848 186.274 48.8956 231.938 28.3157 264.112C20.5038 276.325 0 270.694 0 256.196V14ZM775 0H494.29C482.256 0 472.5 9.75583 472.5 21.7902C472.5 30.4264 477.57 38.4538 485.965 40.4791C491.068 41.7101 496.323 42.5646 502.111 43.5058C524.473 47.1423 554.789 52.0723 615 85C668.824 114.435 690.82 147.118 699.805 168.525C705.057 181.039 716.832 192 730.404 192H775C788.807 192 800 180.807 800 167V25C800 11.1929 788.807 0 775 0ZM35.5112 440.879C30.8496 422.139 0 425.578 0 444.889V761C0 782.539 17.4609 800 39 800H163.886C200.176 800 218.376 753.018 193.186 726.896C141.141 672.925 78.5789 597.887 60 533C51.2426 502.414 42.9635 470.838 35.5112 440.879ZM745.61 252.919C746.433 240.824 755.154 230.731 767 228.16C783.968 224.479 800 237.405 800 254.767V569.063C800 599.39 766.906 618.112 740.912 602.491L718.717 589.154C703.791 580.184 696.62 562.406 701.145 545.591L722.898 464.757C730.282 437.318 734.972 409.224 736.901 380.874L745.61 252.919ZM295 719C282.85 719 273 728.85 273 741V778C273 790.15 282.85 800 295 800H577C589.15 800 599 790.15 599 778V741C599 728.85 589.15 719 577 719H295ZM364.304 439.897C384.98 414.475 422.35 410.628 447.772 431.304L739.581 668.635C765.003 689.311 768.851 726.681 748.175 752.103C727.499 777.525 690.129 781.372 664.707 760.696L372.897 523.365C347.475 502.689 343.628 465.319 364.304 439.897ZM669.492 530.519C664.417 539.51 652.408 541.206 644.6 534.451L570.199 470.093C564.245 464.942 562.681 456.406 565.82 449.185C576.1 425.534 581.8 399.433 581.8 372C581.8 264.967 495.033 178.2 388 178.2C280.967 178.2 194.2 264.967 194.2 372C194.2 468.568 264.83 548.64 357.25 563.374C360.527 563.896 363.628 565.266 366.138 567.437L470.985 658.134C480.895 666.706 477.728 682.652 465 685.765C440.324 691.8 414.536 695 388 695C209.612 695 65 550.388 65 372C65 193.612 209.612 49 388 49C566.388 49 711 193.612 711 372C711 429.606 695.92 483.69 669.492 530.519Z" fill="#5EDBAE"/>
</svg>
